<mxfile host="app.diagrams.net" agent="Mozilla/5.0 (Windows NT 10.0; Win64; x64) AppleWebKit/537.36 (KHTML, like Gecko) Chrome/133.0.0.0 Safari/537.36 Edg/133.0.0.0" version="26.1.0">
  <diagram name="第 1 页" id="ln7_78RblywXNEpEDHzM">
    <mxGraphModel dx="1213" dy="815" grid="1" gridSize="10" guides="1" tooltips="1" connect="1" arrows="1" fold="1" page="1" pageScale="1" pageWidth="827" pageHeight="1169" math="0" shadow="0">
      <root>
        <mxCell id="0" />
        <mxCell id="1" parent="0" />
        <mxCell id="506H9jsnksi4IiLtCp6k-26" value="" style="rounded=1;whiteSpace=wrap;html=1;aspect=fixed;fillColor=light-dark(#d4efee, #ededed);" vertex="1" parent="1">
          <mxGeometry x="395" y="274" width="30" height="30" as="geometry" />
        </mxCell>
        <mxCell id="506H9jsnksi4IiLtCp6k-28" value="" style="rounded=1;whiteSpace=wrap;html=1;aspect=fixed;fillColor=light-dark(#d4efee, #ededed);" vertex="1" parent="1">
          <mxGeometry x="445" y="274" width="30" height="30" as="geometry" />
        </mxCell>
        <mxCell id="506H9jsnksi4IiLtCp6k-29" value="" style="rounded=1;whiteSpace=wrap;html=1;aspect=fixed;fillColor=light-dark(#fbdaea, #ededed);strokeColor=default;align=center;verticalAlign=middle;fontFamily=Helvetica;fontSize=12;fontColor=default;" vertex="1" parent="1">
          <mxGeometry x="495" y="274" width="30" height="30" as="geometry" />
        </mxCell>
        <mxCell id="506H9jsnksi4IiLtCp6k-30" value="" style="rounded=1;whiteSpace=wrap;html=1;aspect=fixed;fillColor=light-dark(#d4efee, #ededed);" vertex="1" parent="1">
          <mxGeometry x="545" y="274" width="30" height="30" as="geometry" />
        </mxCell>
        <mxCell id="506H9jsnksi4IiLtCp6k-31" value="" style="rounded=1;whiteSpace=wrap;html=1;aspect=fixed;fillColor=light-dark(#d4efee, #ededed);" vertex="1" parent="1">
          <mxGeometry x="595" y="274" width="30" height="30" as="geometry" />
        </mxCell>
        <mxCell id="506H9jsnksi4IiLtCp6k-32" value="" style="rounded=1;whiteSpace=wrap;html=1;aspect=fixed;fillColor=light-dark(#d4efee, #ededed);" vertex="1" parent="1">
          <mxGeometry x="395" y="334" width="30" height="30" as="geometry" />
        </mxCell>
        <mxCell id="506H9jsnksi4IiLtCp6k-33" value="" style="rounded=1;whiteSpace=wrap;html=1;aspect=fixed;fillColor=light-dark(#d4efee, #ededed);" vertex="1" parent="1">
          <mxGeometry x="445" y="334" width="30" height="30" as="geometry" />
        </mxCell>
        <mxCell id="506H9jsnksi4IiLtCp6k-34" value="" style="rounded=1;whiteSpace=wrap;html=1;aspect=fixed;fillColor=light-dark(#d4efee, #ededed);" vertex="1" parent="1">
          <mxGeometry x="495" y="334" width="30" height="30" as="geometry" />
        </mxCell>
        <mxCell id="506H9jsnksi4IiLtCp6k-37" value="" style="rounded=1;whiteSpace=wrap;html=1;aspect=fixed;fillColor=light-dark(#d4efee, #ededed);" vertex="1" parent="1">
          <mxGeometry x="395" y="394" width="30" height="30" as="geometry" />
        </mxCell>
        <mxCell id="506H9jsnksi4IiLtCp6k-38" value="" style="rounded=1;whiteSpace=wrap;html=1;aspect=fixed;fillColor=light-dark(#d4efee, #ededed);" vertex="1" parent="1">
          <mxGeometry x="445" y="394" width="30" height="30" as="geometry" />
        </mxCell>
        <mxCell id="506H9jsnksi4IiLtCp6k-39" value="" style="rounded=1;whiteSpace=wrap;html=1;aspect=fixed;fillColor=light-dark(#d4efee, #ededed);" vertex="1" parent="1">
          <mxGeometry x="495" y="394" width="30" height="30" as="geometry" />
        </mxCell>
        <mxCell id="506H9jsnksi4IiLtCp6k-40" value="" style="rounded=1;whiteSpace=wrap;html=1;aspect=fixed;fillColor=light-dark(#d4efee, #ededed);" vertex="1" parent="1">
          <mxGeometry x="545" y="394" width="30" height="30" as="geometry" />
        </mxCell>
        <mxCell id="506H9jsnksi4IiLtCp6k-41" value="" style="rounded=1;whiteSpace=wrap;html=1;aspect=fixed;fillColor=light-dark(#d4efee, #ededed);" vertex="1" parent="1">
          <mxGeometry x="595" y="394" width="30" height="30" as="geometry" />
        </mxCell>
        <mxCell id="506H9jsnksi4IiLtCp6k-42" value="" style="rounded=1;whiteSpace=wrap;html=1;aspect=fixed;fillColor=light-dark(#d4efee, #ededed);" vertex="1" parent="1">
          <mxGeometry x="125" y="274" width="30" height="30" as="geometry" />
        </mxCell>
        <mxCell id="506H9jsnksi4IiLtCp6k-43" value="" style="rounded=1;whiteSpace=wrap;html=1;aspect=fixed;fillColor=light-dark(#d4efee, #ededed);" vertex="1" parent="1">
          <mxGeometry x="175" y="274" width="30" height="30" as="geometry" />
        </mxCell>
        <mxCell id="506H9jsnksi4IiLtCp6k-44" value="" style="rounded=1;whiteSpace=wrap;html=1;aspect=fixed;fillColor=light-dark(#d4efee, #ededed);" vertex="1" parent="1">
          <mxGeometry x="225" y="274" width="30" height="30" as="geometry" />
        </mxCell>
        <mxCell id="506H9jsnksi4IiLtCp6k-45" value="" style="rounded=1;whiteSpace=wrap;html=1;aspect=fixed;fillColor=light-dark(#d4efee, #ededed);" vertex="1" parent="1">
          <mxGeometry x="275" y="274" width="30" height="30" as="geometry" />
        </mxCell>
        <mxCell id="506H9jsnksi4IiLtCp6k-46" value="" style="rounded=1;whiteSpace=wrap;html=1;aspect=fixed;fillColor=light-dark(#fbdaea, #ededed);" vertex="1" parent="1">
          <mxGeometry x="325" y="274" width="30" height="30" as="geometry" />
        </mxCell>
        <mxCell id="506H9jsnksi4IiLtCp6k-47" value="" style="rounded=1;whiteSpace=wrap;html=1;aspect=fixed;fillColor=light-dark(#d4efee, #ededed);" vertex="1" parent="1">
          <mxGeometry x="125" y="334" width="30" height="30" as="geometry" />
        </mxCell>
        <mxCell id="506H9jsnksi4IiLtCp6k-48" value="" style="rounded=1;whiteSpace=wrap;html=1;aspect=fixed;fillColor=light-dark(#d4efee, #ededed);" vertex="1" parent="1">
          <mxGeometry x="175" y="334" width="30" height="30" as="geometry" />
        </mxCell>
        <mxCell id="506H9jsnksi4IiLtCp6k-49" value="" style="rounded=1;whiteSpace=wrap;html=1;aspect=fixed;fillColor=light-dark(#d4efee, #ededed);" vertex="1" parent="1">
          <mxGeometry x="225" y="334" width="30" height="30" as="geometry" />
        </mxCell>
        <mxCell id="506H9jsnksi4IiLtCp6k-50" value="" style="rounded=1;whiteSpace=wrap;html=1;aspect=fixed;fillColor=light-dark(#d4efee, #ededed);" vertex="1" parent="1">
          <mxGeometry x="275" y="334" width="30" height="30" as="geometry" />
        </mxCell>
        <mxCell id="506H9jsnksi4IiLtCp6k-51" value="" style="rounded=1;whiteSpace=wrap;html=1;aspect=fixed;fillColor=light-dark(#d4efee, #ededed);" vertex="1" parent="1">
          <mxGeometry x="325" y="334" width="30" height="30" as="geometry" />
        </mxCell>
        <mxCell id="506H9jsnksi4IiLtCp6k-52" value="" style="rounded=1;whiteSpace=wrap;html=1;aspect=fixed;fillColor=light-dark(#d4efee, #ededed);" vertex="1" parent="1">
          <mxGeometry x="125" y="394" width="30" height="30" as="geometry" />
        </mxCell>
        <mxCell id="506H9jsnksi4IiLtCp6k-53" value="" style="rounded=1;whiteSpace=wrap;html=1;aspect=fixed;fillColor=light-dark(#d4efee, #ededed);" vertex="1" parent="1">
          <mxGeometry x="175" y="394" width="30" height="30" as="geometry" />
        </mxCell>
        <mxCell id="506H9jsnksi4IiLtCp6k-54" value="" style="rounded=1;whiteSpace=wrap;html=1;aspect=fixed;fillColor=light-dark(#d4efee, #ededed);" vertex="1" parent="1">
          <mxGeometry x="225" y="394" width="30" height="30" as="geometry" />
        </mxCell>
        <mxCell id="506H9jsnksi4IiLtCp6k-55" value="" style="rounded=1;whiteSpace=wrap;html=1;aspect=fixed;fillColor=light-dark(#d4efee, #ededed);" vertex="1" parent="1">
          <mxGeometry x="275" y="394" width="30" height="30" as="geometry" />
        </mxCell>
        <mxCell id="506H9jsnksi4IiLtCp6k-56" value="" style="rounded=1;whiteSpace=wrap;html=1;aspect=fixed;fillColor=light-dark(#d4efee, #ededed);" vertex="1" parent="1">
          <mxGeometry x="325" y="394" width="30" height="30" as="geometry" />
        </mxCell>
        <mxCell id="506H9jsnksi4IiLtCp6k-58" value="" style="rounded=1;whiteSpace=wrap;html=1;aspect=fixed;fillColor=light-dark(#fbdaea, #ededed);strokeColor=default;align=center;verticalAlign=middle;fontFamily=Helvetica;fontSize=12;fontColor=default;" vertex="1" parent="1">
          <mxGeometry x="715" y="274" width="30" height="30" as="geometry" />
        </mxCell>
        <mxCell id="506H9jsnksi4IiLtCp6k-59" value="" style="rounded=1;whiteSpace=wrap;html=1;aspect=fixed;fillColor=light-dark(#fbdaea, #ededed);strokeColor=default;align=center;verticalAlign=middle;fontFamily=Helvetica;fontSize=12;fontColor=default;" vertex="1" parent="1">
          <mxGeometry x="765" y="274" width="30" height="30" as="geometry" />
        </mxCell>
        <mxCell id="506H9jsnksi4IiLtCp6k-60" value="" style="rounded=1;whiteSpace=wrap;html=1;aspect=fixed;fillColor=light-dark(#fbdaea, #ededed);strokeColor=default;align=center;verticalAlign=middle;fontFamily=Helvetica;fontSize=12;fontColor=default;" vertex="1" parent="1">
          <mxGeometry x="815" y="274" width="30" height="30" as="geometry" />
        </mxCell>
        <mxCell id="506H9jsnksi4IiLtCp6k-63" value="" style="rounded=1;whiteSpace=wrap;html=1;aspect=fixed;fillColor=light-dark(#fbdaea, #ededed);strokeColor=default;align=center;verticalAlign=middle;fontFamily=Helvetica;fontSize=12;fontColor=default;" vertex="1" parent="1">
          <mxGeometry x="715" y="334" width="30" height="30" as="geometry" />
        </mxCell>
        <mxCell id="506H9jsnksi4IiLtCp6k-64" value="" style="rounded=1;whiteSpace=wrap;html=1;aspect=fixed;fillColor=light-dark(#fbdaea, #ededed);strokeColor=default;align=center;verticalAlign=middle;fontFamily=Helvetica;fontSize=12;fontColor=default;" vertex="1" parent="1">
          <mxGeometry x="765" y="334" width="30" height="30" as="geometry" />
        </mxCell>
        <mxCell id="506H9jsnksi4IiLtCp6k-65" value="" style="rounded=1;whiteSpace=wrap;html=1;aspect=fixed;fillColor=light-dark(#fbdaea, #ededed);strokeColor=default;align=center;verticalAlign=middle;fontFamily=Helvetica;fontSize=12;fontColor=default;" vertex="1" parent="1">
          <mxGeometry x="815" y="334" width="30" height="30" as="geometry" />
        </mxCell>
        <mxCell id="506H9jsnksi4IiLtCp6k-67" value="" style="rounded=1;whiteSpace=wrap;html=1;aspect=fixed;fillColor=light-dark(#d4efee, #ededed);" vertex="1" parent="1">
          <mxGeometry x="665" y="394" width="30" height="30" as="geometry" />
        </mxCell>
        <mxCell id="506H9jsnksi4IiLtCp6k-68" value="" style="rounded=1;whiteSpace=wrap;html=1;aspect=fixed;fillColor=light-dark(#d4efee, #ededed);" vertex="1" parent="1">
          <mxGeometry x="715" y="394" width="30" height="30" as="geometry" />
        </mxCell>
        <mxCell id="506H9jsnksi4IiLtCp6k-69" value="" style="rounded=1;whiteSpace=wrap;html=1;aspect=fixed;fillColor=light-dark(#d4efee, #ededed);" vertex="1" parent="1">
          <mxGeometry x="765" y="394" width="30" height="30" as="geometry" />
        </mxCell>
        <mxCell id="506H9jsnksi4IiLtCp6k-70" value="" style="rounded=1;whiteSpace=wrap;html=1;aspect=fixed;fillColor=light-dark(#d4efee, #ededed);" vertex="1" parent="1">
          <mxGeometry x="815" y="394" width="30" height="30" as="geometry" />
        </mxCell>
        <mxCell id="506H9jsnksi4IiLtCp6k-71" value="" style="rounded=1;whiteSpace=wrap;html=1;aspect=fixed;fillColor=light-dark(#d4efee, #ededed);" vertex="1" parent="1">
          <mxGeometry x="865" y="394" width="30" height="30" as="geometry" />
        </mxCell>
        <mxCell id="506H9jsnksi4IiLtCp6k-72" value="&lt;font style=&quot;font-size: 16px;&quot; face=&quot;Times New Roman&quot;&gt;x&lt;sub&gt;1&lt;/sub&gt;&lt;/font&gt;" style="text;html=1;align=center;verticalAlign=middle;resizable=0;points=[];autosize=1;strokeColor=none;fillColor=none;" vertex="1" parent="1">
          <mxGeometry x="390" y="419" width="40" height="40" as="geometry" />
        </mxCell>
        <mxCell id="506H9jsnksi4IiLtCp6k-73" value="&lt;font style=&quot;font-size: 16px;&quot; face=&quot;Times New Roman&quot;&gt;x&lt;/font&gt;&lt;font style=&quot;font-size: 13.3333px;&quot; face=&quot;Times New Roman&quot;&gt;&lt;sub&gt;2&lt;/sub&gt;&lt;/font&gt;" style="text;html=1;align=center;verticalAlign=middle;resizable=0;points=[];autosize=1;strokeColor=none;fillColor=none;" vertex="1" parent="1">
          <mxGeometry x="440" y="424" width="40" height="30" as="geometry" />
        </mxCell>
        <mxCell id="506H9jsnksi4IiLtCp6k-74" value="&lt;font style=&quot;font-size: 14px;&quot; face=&quot;Times New Roman&quot;&gt;[MASK]&lt;/font&gt;" style="text;html=1;align=center;verticalAlign=middle;resizable=0;points=[];autosize=1;strokeColor=none;fillColor=none;" vertex="1" parent="1">
          <mxGeometry x="475" y="424" width="70" height="30" as="geometry" />
        </mxCell>
        <mxCell id="506H9jsnksi4IiLtCp6k-75" value="&lt;font style=&quot;font-size: 16px;&quot; face=&quot;Times New Roman&quot;&gt;x&lt;/font&gt;&lt;font style=&quot;font-size: 13.3333px;&quot; face=&quot;Times New Roman&quot;&gt;&lt;sub&gt;4&lt;/sub&gt;&lt;/font&gt;" style="text;html=1;align=center;verticalAlign=middle;resizable=0;points=[];autosize=1;strokeColor=none;fillColor=none;" vertex="1" parent="1">
          <mxGeometry x="540" y="424" width="40" height="30" as="geometry" />
        </mxCell>
        <mxCell id="506H9jsnksi4IiLtCp6k-76" value="&lt;font style=&quot;font-size: 16px;&quot; face=&quot;Times New Roman&quot;&gt;x&lt;/font&gt;&lt;font style=&quot;font-size: 13.3333px;&quot; face=&quot;Times New Roman&quot;&gt;&lt;sub&gt;5&lt;/sub&gt;&lt;/font&gt;" style="text;html=1;align=center;verticalAlign=middle;resizable=0;points=[];autosize=1;strokeColor=none;fillColor=none;" vertex="1" parent="1">
          <mxGeometry x="590" y="424" width="40" height="30" as="geometry" />
        </mxCell>
        <mxCell id="506H9jsnksi4IiLtCp6k-77" value="&lt;font style=&quot;font-size: 16px;&quot; face=&quot;Times New Roman&quot;&gt;x&lt;sub&gt;1&lt;/sub&gt;&lt;/font&gt;" style="text;html=1;align=center;verticalAlign=middle;resizable=0;points=[];autosize=1;strokeColor=none;fillColor=none;" vertex="1" parent="1">
          <mxGeometry x="120" y="419" width="40" height="40" as="geometry" />
        </mxCell>
        <mxCell id="506H9jsnksi4IiLtCp6k-78" value="&lt;font style=&quot;font-size: 16px;&quot; face=&quot;Times New Roman&quot;&gt;x&lt;/font&gt;&lt;font style=&quot;font-size: 13.3333px;&quot; face=&quot;Times New Roman&quot;&gt;&lt;sub&gt;2&lt;/sub&gt;&lt;/font&gt;" style="text;html=1;align=center;verticalAlign=middle;resizable=0;points=[];autosize=1;strokeColor=none;fillColor=none;" vertex="1" parent="1">
          <mxGeometry x="170" y="424" width="40" height="30" as="geometry" />
        </mxCell>
        <mxCell id="506H9jsnksi4IiLtCp6k-79" value="&lt;font style=&quot;font-size: 16px;&quot; face=&quot;Times New Roman&quot;&gt;x&lt;/font&gt;&lt;font style=&quot;font-size: 13.3333px;&quot; face=&quot;Times New Roman&quot;&gt;&lt;sub&gt;3&lt;/sub&gt;&lt;/font&gt;" style="text;html=1;align=center;verticalAlign=middle;resizable=0;points=[];autosize=1;strokeColor=none;fillColor=none;" vertex="1" parent="1">
          <mxGeometry x="220" y="424" width="40" height="30" as="geometry" />
        </mxCell>
        <mxCell id="506H9jsnksi4IiLtCp6k-80" value="&lt;font style=&quot;font-size: 16px;&quot; face=&quot;Times New Roman&quot;&gt;x&lt;/font&gt;&lt;font style=&quot;font-size: 13.3333px;&quot; face=&quot;Times New Roman&quot;&gt;&lt;sub&gt;4&lt;/sub&gt;&lt;/font&gt;" style="text;html=1;align=center;verticalAlign=middle;resizable=0;points=[];autosize=1;strokeColor=none;fillColor=none;" vertex="1" parent="1">
          <mxGeometry x="270" y="424" width="40" height="30" as="geometry" />
        </mxCell>
        <mxCell id="506H9jsnksi4IiLtCp6k-81" value="&lt;font style=&quot;font-size: 16px;&quot; face=&quot;Times New Roman&quot;&gt;x&lt;/font&gt;&lt;font style=&quot;font-size: 13.3333px;&quot; face=&quot;Times New Roman&quot;&gt;&lt;sub&gt;5&lt;/sub&gt;&lt;/font&gt;" style="text;html=1;align=center;verticalAlign=middle;resizable=0;points=[];autosize=1;strokeColor=none;fillColor=none;" vertex="1" parent="1">
          <mxGeometry x="320" y="424" width="40" height="30" as="geometry" />
        </mxCell>
        <mxCell id="506H9jsnksi4IiLtCp6k-82" value="&lt;font style=&quot;font-size: 16px;&quot; face=&quot;Times New Roman&quot;&gt;x&lt;sub&gt;1&lt;/sub&gt;&lt;/font&gt;" style="text;html=1;align=center;verticalAlign=middle;resizable=0;points=[];autosize=1;strokeColor=none;fillColor=none;" vertex="1" parent="1">
          <mxGeometry x="660" y="419" width="40" height="40" as="geometry" />
        </mxCell>
        <mxCell id="506H9jsnksi4IiLtCp6k-83" value="&lt;font style=&quot;font-size: 16px;&quot; face=&quot;Times New Roman&quot;&gt;x&lt;/font&gt;&lt;font style=&quot;font-size: 13.3333px;&quot; face=&quot;Times New Roman&quot;&gt;&lt;sub&gt;2&lt;/sub&gt;&lt;/font&gt;" style="text;html=1;align=center;verticalAlign=middle;resizable=0;points=[];autosize=1;strokeColor=none;fillColor=none;" vertex="1" parent="1">
          <mxGeometry x="710" y="424" width="40" height="30" as="geometry" />
        </mxCell>
        <mxCell id="506H9jsnksi4IiLtCp6k-84" value="&lt;font style=&quot;font-size: 16px;&quot; face=&quot;Times New Roman&quot;&gt;x&lt;/font&gt;&lt;font style=&quot;font-size: 13.3333px;&quot; face=&quot;Times New Roman&quot;&gt;&lt;sub&gt;3&lt;/sub&gt;&lt;/font&gt;" style="text;html=1;align=center;verticalAlign=middle;resizable=0;points=[];autosize=1;strokeColor=none;fillColor=none;" vertex="1" parent="1">
          <mxGeometry x="760" y="424" width="40" height="30" as="geometry" />
        </mxCell>
        <mxCell id="506H9jsnksi4IiLtCp6k-85" value="&lt;font style=&quot;font-size: 16px;&quot; face=&quot;Times New Roman&quot;&gt;x&lt;/font&gt;&lt;font style=&quot;font-size: 13.3333px;&quot; face=&quot;Times New Roman&quot;&gt;&lt;sub&gt;4&lt;/sub&gt;&lt;/font&gt;" style="text;html=1;align=center;verticalAlign=middle;resizable=0;points=[];autosize=1;strokeColor=none;fillColor=none;" vertex="1" parent="1">
          <mxGeometry x="810" y="424" width="40" height="30" as="geometry" />
        </mxCell>
        <mxCell id="506H9jsnksi4IiLtCp6k-86" value="&lt;font style=&quot;font-size: 16px;&quot; face=&quot;Times New Roman&quot;&gt;x&lt;/font&gt;&lt;font style=&quot;font-size: 13.3333px;&quot; face=&quot;Times New Roman&quot;&gt;&lt;sub&gt;5&lt;/sub&gt;&lt;/font&gt;" style="text;html=1;align=center;verticalAlign=middle;resizable=0;points=[];autosize=1;strokeColor=none;fillColor=none;" vertex="1" parent="1">
          <mxGeometry x="860" y="424" width="40" height="30" as="geometry" />
        </mxCell>
        <mxCell id="506H9jsnksi4IiLtCp6k-87" value="&lt;font style=&quot;font-size: 16px;&quot; face=&quot;Times New Roman&quot;&gt;x&lt;/font&gt;&lt;font style=&quot;font-size: 13.3333px;&quot; face=&quot;Times New Roman&quot;&gt;&lt;sub&gt;3&lt;/sub&gt;&lt;/font&gt;" style="text;html=1;align=center;verticalAlign=middle;resizable=0;points=[];autosize=1;strokeColor=none;fillColor=none;" vertex="1" parent="1">
          <mxGeometry x="490" y="244" width="40" height="30" as="geometry" />
        </mxCell>
        <mxCell id="506H9jsnksi4IiLtCp6k-88" value="&lt;font style=&quot;font-size: 16px;&quot; face=&quot;Times New Roman&quot;&gt;x&lt;/font&gt;&lt;font style=&quot;font-size: 13.3333px;&quot; face=&quot;Times New Roman&quot;&gt;&lt;sub&gt;2&lt;/sub&gt;&lt;/font&gt;" style="text;html=1;align=center;verticalAlign=middle;resizable=0;points=[];autosize=1;strokeColor=none;fillColor=none;" vertex="1" parent="1">
          <mxGeometry x="120" y="244" width="40" height="30" as="geometry" />
        </mxCell>
        <mxCell id="506H9jsnksi4IiLtCp6k-89" value="&lt;font style=&quot;font-size: 16px;&quot; face=&quot;Times New Roman&quot;&gt;x&lt;/font&gt;&lt;font style=&quot;font-size: 13.3333px;&quot; face=&quot;Times New Roman&quot;&gt;&lt;sub&gt;3&lt;/sub&gt;&lt;/font&gt;" style="text;html=1;align=center;verticalAlign=middle;resizable=0;points=[];autosize=1;strokeColor=none;fillColor=none;" vertex="1" parent="1">
          <mxGeometry x="170" y="244" width="40" height="30" as="geometry" />
        </mxCell>
        <mxCell id="506H9jsnksi4IiLtCp6k-90" value="&lt;font style=&quot;font-size: 16px;&quot; face=&quot;Times New Roman&quot;&gt;x&lt;/font&gt;&lt;font style=&quot;font-size: 13.3333px;&quot; face=&quot;Times New Roman&quot;&gt;&lt;sub&gt;4&lt;/sub&gt;&lt;/font&gt;" style="text;html=1;align=center;verticalAlign=middle;resizable=0;points=[];autosize=1;strokeColor=none;fillColor=none;" vertex="1" parent="1">
          <mxGeometry x="220" y="244" width="40" height="30" as="geometry" />
        </mxCell>
        <mxCell id="506H9jsnksi4IiLtCp6k-91" value="&lt;font style=&quot;font-size: 16px;&quot; face=&quot;Times New Roman&quot;&gt;x&lt;/font&gt;&lt;font style=&quot;font-size: 13.3333px;&quot; face=&quot;Times New Roman&quot;&gt;&lt;sub&gt;5&lt;/sub&gt;&lt;/font&gt;" style="text;html=1;align=center;verticalAlign=middle;resizable=0;points=[];autosize=1;strokeColor=none;fillColor=none;" vertex="1" parent="1">
          <mxGeometry x="270" y="244" width="40" height="30" as="geometry" />
        </mxCell>
        <mxCell id="506H9jsnksi4IiLtCp6k-92" value="&lt;font style=&quot;&quot; face=&quot;Times New Roman&quot;&gt;&lt;span style=&quot;font-size: 16px;&quot;&gt;y&lt;sub&gt;1&lt;/sub&gt;&lt;/span&gt;&lt;/font&gt;" style="text;html=1;align=center;verticalAlign=middle;resizable=0;points=[];autosize=1;strokeColor=none;fillColor=none;" vertex="1" parent="1">
          <mxGeometry x="320" y="239" width="40" height="40" as="geometry" />
        </mxCell>
        <mxCell id="506H9jsnksi4IiLtCp6k-93" value="&lt;font style=&quot;&quot; face=&quot;Times New Roman&quot;&gt;&lt;span style=&quot;font-size: 16px;&quot;&gt;y&lt;sub&gt;1&lt;/sub&gt;&lt;/span&gt;&lt;/font&gt;" style="text;html=1;align=center;verticalAlign=middle;resizable=0;points=[];autosize=1;strokeColor=none;fillColor=none;" vertex="1" parent="1">
          <mxGeometry x="710" y="239" width="40" height="40" as="geometry" />
        </mxCell>
        <mxCell id="506H9jsnksi4IiLtCp6k-94" value="&lt;font style=&quot;&quot; face=&quot;Times New Roman&quot;&gt;&lt;span style=&quot;font-size: 16px;&quot;&gt;y&lt;sub&gt;2&lt;/sub&gt;&lt;/span&gt;&lt;/font&gt;" style="text;html=1;align=center;verticalAlign=middle;resizable=0;points=[];autosize=1;strokeColor=none;fillColor=none;" vertex="1" parent="1">
          <mxGeometry x="760" y="239" width="40" height="40" as="geometry" />
        </mxCell>
        <mxCell id="506H9jsnksi4IiLtCp6k-95" value="&lt;font style=&quot;&quot; face=&quot;Times New Roman&quot;&gt;&lt;span style=&quot;font-size: 16px;&quot;&gt;y&lt;sub&gt;3&lt;/sub&gt;&lt;/span&gt;&lt;/font&gt;" style="text;html=1;align=center;verticalAlign=middle;resizable=0;points=[];autosize=1;strokeColor=none;fillColor=none;" vertex="1" parent="1">
          <mxGeometry x="810" y="239" width="40" height="40" as="geometry" />
        </mxCell>
        <mxCell id="506H9jsnksi4IiLtCp6k-114" value="" style="group;fontStyle=4" vertex="1" connectable="0" parent="1">
          <mxGeometry x="545" y="334" width="80" height="30" as="geometry" />
        </mxCell>
        <mxCell id="506H9jsnksi4IiLtCp6k-35" value="" style="rounded=1;whiteSpace=wrap;html=1;aspect=fixed;fillColor=light-dark(#d4efee, #ededed);fontStyle=4" vertex="1" parent="506H9jsnksi4IiLtCp6k-114">
          <mxGeometry width="30" height="30" as="geometry" />
        </mxCell>
        <mxCell id="506H9jsnksi4IiLtCp6k-36" value="" style="rounded=1;whiteSpace=wrap;html=1;aspect=fixed;fillColor=light-dark(#d4efee, #ededed);fontStyle=4" vertex="1" parent="506H9jsnksi4IiLtCp6k-114">
          <mxGeometry x="50" width="30" height="30" as="geometry" />
        </mxCell>
        <mxCell id="506H9jsnksi4IiLtCp6k-132" value="" style="endArrow=none;html=1;rounded=0;entryX=0.5;entryY=1;entryDx=0;entryDy=0;exitX=0.5;exitY=0;exitDx=0;exitDy=0;strokeColor=light-dark(#bfbfbf, #ededed);" edge="1" parent="1">
          <mxGeometry width="50" height="50" relative="1" as="geometry">
            <mxPoint x="609.5799999999999" y="334" as="sourcePoint" />
            <mxPoint x="609.5799999999999" y="304" as="targetPoint" />
          </mxGeometry>
        </mxCell>
        <mxCell id="506H9jsnksi4IiLtCp6k-133" value="" style="endArrow=none;html=1;rounded=0;entryX=0.5;entryY=1;entryDx=0;entryDy=0;exitX=0.5;exitY=0;exitDx=0;exitDy=0;strokeColor=light-dark(#bfbfbf, #ededed);" edge="1" parent="1">
          <mxGeometry width="50" height="50" relative="1" as="geometry">
            <mxPoint x="559.5799999999999" y="334" as="sourcePoint" />
            <mxPoint x="609.5799999999999" y="304" as="targetPoint" />
          </mxGeometry>
        </mxCell>
        <mxCell id="506H9jsnksi4IiLtCp6k-134" value="" style="endArrow=none;html=1;rounded=0;exitX=0.5;exitY=0;exitDx=0;exitDy=0;entryX=0.5;entryY=1;entryDx=0;entryDy=0;strokeColor=light-dark(#bfbfbf, #ededed);" edge="1" parent="1">
          <mxGeometry width="50" height="50" relative="1" as="geometry">
            <mxPoint x="509.5799999999999" y="334" as="sourcePoint" />
            <mxPoint x="609.5799999999999" y="304" as="targetPoint" />
          </mxGeometry>
        </mxCell>
        <mxCell id="506H9jsnksi4IiLtCp6k-135" value="" style="endArrow=none;html=1;rounded=0;exitX=0.5;exitY=0;exitDx=0;exitDy=0;entryX=0.5;entryY=1;entryDx=0;entryDy=0;strokeColor=light-dark(#bfbfbf, #ededed);" edge="1" parent="1">
          <mxGeometry width="50" height="50" relative="1" as="geometry">
            <mxPoint x="459.58" y="334" as="sourcePoint" />
            <mxPoint x="609.5799999999999" y="304" as="targetPoint" />
          </mxGeometry>
        </mxCell>
        <mxCell id="506H9jsnksi4IiLtCp6k-136" value="" style="endArrow=none;html=1;rounded=0;entryX=0.5;entryY=1;entryDx=0;entryDy=0;exitX=0.5;exitY=0;exitDx=0;exitDy=0;strokeColor=light-dark(#bfbfbf, #ededed);" edge="1" parent="1">
          <mxGeometry width="50" height="50" relative="1" as="geometry">
            <mxPoint x="409.58" y="334" as="sourcePoint" />
            <mxPoint x="609.5799999999999" y="304" as="targetPoint" />
          </mxGeometry>
        </mxCell>
        <mxCell id="506H9jsnksi4IiLtCp6k-137" value="" style="endArrow=none;html=1;rounded=0;entryX=0.5;entryY=1;entryDx=0;entryDy=0;exitX=0.5;exitY=0;exitDx=0;exitDy=0;strokeColor=light-dark(#bfbfbf, #ededed);" edge="1" parent="1">
          <mxGeometry width="50" height="50" relative="1" as="geometry">
            <mxPoint x="609.71" y="394" as="sourcePoint" />
            <mxPoint x="609.71" y="364" as="targetPoint" />
          </mxGeometry>
        </mxCell>
        <mxCell id="506H9jsnksi4IiLtCp6k-138" value="" style="endArrow=none;html=1;rounded=0;entryX=0.5;entryY=1;entryDx=0;entryDy=0;exitX=0.5;exitY=0;exitDx=0;exitDy=0;strokeColor=light-dark(#bfbfbf, #ededed);" edge="1" parent="1">
          <mxGeometry width="50" height="50" relative="1" as="geometry">
            <mxPoint x="559.71" y="394" as="sourcePoint" />
            <mxPoint x="609.71" y="364" as="targetPoint" />
          </mxGeometry>
        </mxCell>
        <mxCell id="506H9jsnksi4IiLtCp6k-139" value="" style="endArrow=none;html=1;rounded=0;exitX=0.5;exitY=0;exitDx=0;exitDy=0;entryX=0.5;entryY=1;entryDx=0;entryDy=0;strokeColor=light-dark(#bfbfbf, #ededed);" edge="1" parent="1">
          <mxGeometry width="50" height="50" relative="1" as="geometry">
            <mxPoint x="509.71000000000004" y="394" as="sourcePoint" />
            <mxPoint x="609.71" y="364" as="targetPoint" />
          </mxGeometry>
        </mxCell>
        <mxCell id="506H9jsnksi4IiLtCp6k-140" value="" style="endArrow=none;html=1;rounded=0;exitX=0.5;exitY=0;exitDx=0;exitDy=0;entryX=0.5;entryY=1;entryDx=0;entryDy=0;strokeColor=light-dark(#bfbfbf, #ededed);" edge="1" parent="1">
          <mxGeometry width="50" height="50" relative="1" as="geometry">
            <mxPoint x="459.71" y="394" as="sourcePoint" />
            <mxPoint x="609.71" y="364" as="targetPoint" />
          </mxGeometry>
        </mxCell>
        <mxCell id="506H9jsnksi4IiLtCp6k-141" value="" style="endArrow=none;html=1;rounded=0;entryX=0.5;entryY=1;entryDx=0;entryDy=0;exitX=0.5;exitY=0;exitDx=0;exitDy=0;strokeColor=light-dark(#bfbfbf, #ededed);" edge="1" parent="1">
          <mxGeometry width="50" height="50" relative="1" as="geometry">
            <mxPoint x="409.71" y="394" as="sourcePoint" />
            <mxPoint x="609.71" y="364" as="targetPoint" />
          </mxGeometry>
        </mxCell>
        <mxCell id="506H9jsnksi4IiLtCp6k-142" value="" style="endArrow=none;html=1;rounded=0;exitX=0.5;exitY=0;exitDx=0;exitDy=0;strokeColor=light-dark(#bfbfbf, #ededed);entryX=0.5;entryY=1;entryDx=0;entryDy=0;" edge="1" parent="1" source="506H9jsnksi4IiLtCp6k-36" target="506H9jsnksi4IiLtCp6k-26">
          <mxGeometry width="50" height="50" relative="1" as="geometry">
            <mxPoint x="633.5799999999999" y="354" as="sourcePoint" />
            <mxPoint x="405" y="304" as="targetPoint" />
          </mxGeometry>
        </mxCell>
        <mxCell id="506H9jsnksi4IiLtCp6k-143" value="" style="endArrow=none;html=1;rounded=0;entryX=0.5;entryY=1;entryDx=0;entryDy=0;exitX=0.5;exitY=0;exitDx=0;exitDy=0;strokeColor=light-dark(#bfbfbf, #ededed);" edge="1" parent="1" source="506H9jsnksi4IiLtCp6k-35" target="506H9jsnksi4IiLtCp6k-26">
          <mxGeometry width="50" height="50" relative="1" as="geometry">
            <mxPoint x="579.5799999999999" y="354" as="sourcePoint" />
            <mxPoint x="629.5799999999999" y="324" as="targetPoint" />
          </mxGeometry>
        </mxCell>
        <mxCell id="506H9jsnksi4IiLtCp6k-144" value="" style="endArrow=none;html=1;rounded=0;exitX=0.5;exitY=0;exitDx=0;exitDy=0;entryX=0.5;entryY=1;entryDx=0;entryDy=0;strokeColor=light-dark(#bfbfbf, #ededed);" edge="1" parent="1" source="506H9jsnksi4IiLtCp6k-34" target="506H9jsnksi4IiLtCp6k-26">
          <mxGeometry width="50" height="50" relative="1" as="geometry">
            <mxPoint x="529.5799999999999" y="354" as="sourcePoint" />
            <mxPoint x="629.5799999999999" y="324" as="targetPoint" />
          </mxGeometry>
        </mxCell>
        <mxCell id="506H9jsnksi4IiLtCp6k-145" value="" style="endArrow=none;html=1;rounded=0;exitX=0.5;exitY=0;exitDx=0;exitDy=0;entryX=0.5;entryY=1;entryDx=0;entryDy=0;strokeColor=light-dark(#bfbfbf, #ededed);" edge="1" parent="1" source="506H9jsnksi4IiLtCp6k-33" target="506H9jsnksi4IiLtCp6k-26">
          <mxGeometry width="50" height="50" relative="1" as="geometry">
            <mxPoint x="479.58" y="354" as="sourcePoint" />
            <mxPoint x="629.5799999999999" y="324" as="targetPoint" />
          </mxGeometry>
        </mxCell>
        <mxCell id="506H9jsnksi4IiLtCp6k-146" value="" style="endArrow=none;html=1;rounded=0;entryX=0.5;entryY=1;entryDx=0;entryDy=0;exitX=0.5;exitY=0;exitDx=0;exitDy=0;strokeColor=light-dark(#bfbfbf, #ededed);" edge="1" parent="1" source="506H9jsnksi4IiLtCp6k-32" target="506H9jsnksi4IiLtCp6k-26">
          <mxGeometry width="50" height="50" relative="1" as="geometry">
            <mxPoint x="429.58" y="354" as="sourcePoint" />
            <mxPoint x="629.5799999999999" y="324" as="targetPoint" />
          </mxGeometry>
        </mxCell>
        <mxCell id="506H9jsnksi4IiLtCp6k-147" value="" style="endArrow=none;html=1;rounded=0;exitX=0.5;exitY=0;exitDx=0;exitDy=0;strokeColor=light-dark(#bfbfbf, #ededed);entryX=0.5;entryY=1;entryDx=0;entryDy=0;" edge="1" parent="1">
          <mxGeometry width="50" height="50" relative="1" as="geometry">
            <mxPoint x="610" y="394" as="sourcePoint" />
            <mxPoint x="410" y="364" as="targetPoint" />
          </mxGeometry>
        </mxCell>
        <mxCell id="506H9jsnksi4IiLtCp6k-148" value="" style="endArrow=none;html=1;rounded=0;entryX=0.5;entryY=1;entryDx=0;entryDy=0;exitX=0.5;exitY=0;exitDx=0;exitDy=0;strokeColor=light-dark(#bfbfbf, #ededed);" edge="1" parent="1">
          <mxGeometry width="50" height="50" relative="1" as="geometry">
            <mxPoint x="560" y="394" as="sourcePoint" />
            <mxPoint x="410" y="364" as="targetPoint" />
          </mxGeometry>
        </mxCell>
        <mxCell id="506H9jsnksi4IiLtCp6k-149" value="" style="endArrow=none;html=1;rounded=0;exitX=0.5;exitY=0;exitDx=0;exitDy=0;entryX=0.5;entryY=1;entryDx=0;entryDy=0;strokeColor=light-dark(#bfbfbf, #ededed);" edge="1" parent="1">
          <mxGeometry width="50" height="50" relative="1" as="geometry">
            <mxPoint x="510" y="394" as="sourcePoint" />
            <mxPoint x="410" y="364" as="targetPoint" />
          </mxGeometry>
        </mxCell>
        <mxCell id="506H9jsnksi4IiLtCp6k-150" value="" style="endArrow=none;html=1;rounded=0;exitX=0.5;exitY=0;exitDx=0;exitDy=0;entryX=0.5;entryY=1;entryDx=0;entryDy=0;strokeColor=light-dark(#bfbfbf, #ededed);" edge="1" parent="1">
          <mxGeometry width="50" height="50" relative="1" as="geometry">
            <mxPoint x="460" y="394" as="sourcePoint" />
            <mxPoint x="410" y="364" as="targetPoint" />
          </mxGeometry>
        </mxCell>
        <mxCell id="506H9jsnksi4IiLtCp6k-151" value="" style="endArrow=none;html=1;rounded=0;entryX=0.5;entryY=1;entryDx=0;entryDy=0;exitX=0.5;exitY=0;exitDx=0;exitDy=0;strokeColor=light-dark(#bfbfbf, #ededed);" edge="1" parent="1">
          <mxGeometry width="50" height="50" relative="1" as="geometry">
            <mxPoint x="410" y="394" as="sourcePoint" />
            <mxPoint x="410" y="364" as="targetPoint" />
          </mxGeometry>
        </mxCell>
        <mxCell id="506H9jsnksi4IiLtCp6k-152" value="" style="endArrow=none;html=1;rounded=0;exitX=0.5;exitY=0;exitDx=0;exitDy=0;strokeColor=light-dark(#bfbfbf, #ededed);entryX=0.5;entryY=1;entryDx=0;entryDy=0;" edge="1" parent="1" source="506H9jsnksi4IiLtCp6k-36" target="506H9jsnksi4IiLtCp6k-28">
          <mxGeometry width="50" height="50" relative="1" as="geometry">
            <mxPoint x="630" y="354" as="sourcePoint" />
            <mxPoint x="430" y="324" as="targetPoint" />
          </mxGeometry>
        </mxCell>
        <mxCell id="506H9jsnksi4IiLtCp6k-153" value="" style="endArrow=none;html=1;rounded=0;exitX=0.5;exitY=0;exitDx=0;exitDy=0;strokeColor=light-dark(#bfbfbf, #ededed);entryX=0.5;entryY=1;entryDx=0;entryDy=0;" edge="1" parent="1" source="506H9jsnksi4IiLtCp6k-35" target="506H9jsnksi4IiLtCp6k-28">
          <mxGeometry width="50" height="50" relative="1" as="geometry">
            <mxPoint x="580" y="354" as="sourcePoint" />
            <mxPoint x="505" y="214" as="targetPoint" />
          </mxGeometry>
        </mxCell>
        <mxCell id="506H9jsnksi4IiLtCp6k-154" value="" style="endArrow=none;html=1;rounded=0;exitX=0.5;exitY=0;exitDx=0;exitDy=0;entryX=0.5;entryY=1;entryDx=0;entryDy=0;strokeColor=light-dark(#bfbfbf, #ededed);" edge="1" parent="1" source="506H9jsnksi4IiLtCp6k-34" target="506H9jsnksi4IiLtCp6k-28">
          <mxGeometry width="50" height="50" relative="1" as="geometry">
            <mxPoint x="530" y="354" as="sourcePoint" />
            <mxPoint x="430" y="324" as="targetPoint" />
          </mxGeometry>
        </mxCell>
        <mxCell id="506H9jsnksi4IiLtCp6k-155" value="" style="endArrow=none;html=1;rounded=0;entryX=0.5;entryY=1;entryDx=0;entryDy=0;strokeColor=light-dark(#bfbfbf, #ededed);" edge="1" parent="1" source="506H9jsnksi4IiLtCp6k-33" target="506H9jsnksi4IiLtCp6k-28">
          <mxGeometry width="50" height="50" relative="1" as="geometry">
            <mxPoint x="480" y="354" as="sourcePoint" />
            <mxPoint x="430" y="324" as="targetPoint" />
          </mxGeometry>
        </mxCell>
        <mxCell id="506H9jsnksi4IiLtCp6k-156" value="" style="endArrow=none;html=1;rounded=0;entryX=0.5;entryY=1;entryDx=0;entryDy=0;exitX=0.5;exitY=0;exitDx=0;exitDy=0;strokeColor=light-dark(#bfbfbf, #ededed);" edge="1" parent="1" source="506H9jsnksi4IiLtCp6k-32" target="506H9jsnksi4IiLtCp6k-28">
          <mxGeometry width="50" height="50" relative="1" as="geometry">
            <mxPoint x="430" y="354" as="sourcePoint" />
            <mxPoint x="430" y="324" as="targetPoint" />
          </mxGeometry>
        </mxCell>
        <mxCell id="506H9jsnksi4IiLtCp6k-157" value="" style="endArrow=none;html=1;rounded=0;exitX=0.5;exitY=0;exitDx=0;exitDy=0;strokeColor=light-dark(#bfbfbf, #ededed);entryX=0.5;entryY=1;entryDx=0;entryDy=0;" edge="1" parent="1">
          <mxGeometry width="50" height="50" relative="1" as="geometry">
            <mxPoint x="610" y="394" as="sourcePoint" />
            <mxPoint x="460" y="364" as="targetPoint" />
          </mxGeometry>
        </mxCell>
        <mxCell id="506H9jsnksi4IiLtCp6k-158" value="" style="endArrow=none;html=1;rounded=0;exitX=0.5;exitY=0;exitDx=0;exitDy=0;strokeColor=light-dark(#bfbfbf, #ededed);entryX=0.5;entryY=1;entryDx=0;entryDy=0;" edge="1" parent="1">
          <mxGeometry width="50" height="50" relative="1" as="geometry">
            <mxPoint x="560" y="394" as="sourcePoint" />
            <mxPoint x="460" y="364" as="targetPoint" />
          </mxGeometry>
        </mxCell>
        <mxCell id="506H9jsnksi4IiLtCp6k-159" value="" style="endArrow=none;html=1;rounded=0;exitX=0.5;exitY=0;exitDx=0;exitDy=0;entryX=0.5;entryY=1;entryDx=0;entryDy=0;strokeColor=light-dark(#bfbfbf, #ededed);" edge="1" parent="1">
          <mxGeometry width="50" height="50" relative="1" as="geometry">
            <mxPoint x="510" y="394" as="sourcePoint" />
            <mxPoint x="460" y="364" as="targetPoint" />
          </mxGeometry>
        </mxCell>
        <mxCell id="506H9jsnksi4IiLtCp6k-160" value="" style="endArrow=none;html=1;rounded=0;entryX=0.5;entryY=1;entryDx=0;entryDy=0;strokeColor=light-dark(#bfbfbf, #ededed);" edge="1" parent="1">
          <mxGeometry width="50" height="50" relative="1" as="geometry">
            <mxPoint x="460" y="394" as="sourcePoint" />
            <mxPoint x="460" y="364" as="targetPoint" />
          </mxGeometry>
        </mxCell>
        <mxCell id="506H9jsnksi4IiLtCp6k-161" value="" style="endArrow=none;html=1;rounded=0;entryX=0.5;entryY=1;entryDx=0;entryDy=0;exitX=0.5;exitY=0;exitDx=0;exitDy=0;strokeColor=light-dark(#bfbfbf, #ededed);" edge="1" parent="1">
          <mxGeometry width="50" height="50" relative="1" as="geometry">
            <mxPoint x="410" y="394" as="sourcePoint" />
            <mxPoint x="460" y="364" as="targetPoint" />
          </mxGeometry>
        </mxCell>
        <mxCell id="506H9jsnksi4IiLtCp6k-162" value="" style="endArrow=none;html=1;rounded=0;exitX=0.5;exitY=0;exitDx=0;exitDy=0;strokeColor=light-dark(#bfbfbf, #ededed);entryX=0.5;entryY=1;entryDx=0;entryDy=0;" edge="1" parent="1" source="506H9jsnksi4IiLtCp6k-36" target="506H9jsnksi4IiLtCp6k-30">
          <mxGeometry width="50" height="50" relative="1" as="geometry">
            <mxPoint x="630" y="354" as="sourcePoint" />
            <mxPoint x="480" y="324" as="targetPoint" />
          </mxGeometry>
        </mxCell>
        <mxCell id="506H9jsnksi4IiLtCp6k-163" value="" style="endArrow=none;html=1;rounded=0;strokeColor=light-dark(#bfbfbf, #ededed);entryX=0.5;entryY=1;entryDx=0;entryDy=0;" edge="1" parent="1" source="506H9jsnksi4IiLtCp6k-35" target="506H9jsnksi4IiLtCp6k-30">
          <mxGeometry width="50" height="50" relative="1" as="geometry">
            <mxPoint x="580" y="354" as="sourcePoint" />
            <mxPoint x="480" y="324" as="targetPoint" />
          </mxGeometry>
        </mxCell>
        <mxCell id="506H9jsnksi4IiLtCp6k-164" value="" style="endArrow=none;html=1;rounded=0;exitX=0.5;exitY=0;exitDx=0;exitDy=0;entryX=0.5;entryY=1;entryDx=0;entryDy=0;strokeColor=light-dark(#bfbfbf, #ededed);" edge="1" parent="1" source="506H9jsnksi4IiLtCp6k-34" target="506H9jsnksi4IiLtCp6k-30">
          <mxGeometry width="50" height="50" relative="1" as="geometry">
            <mxPoint x="530" y="354" as="sourcePoint" />
            <mxPoint x="480" y="324" as="targetPoint" />
          </mxGeometry>
        </mxCell>
        <mxCell id="506H9jsnksi4IiLtCp6k-165" value="" style="endArrow=none;html=1;rounded=0;strokeColor=light-dark(#bfbfbf, #ededed);entryX=0.5;entryY=1;entryDx=0;entryDy=0;exitX=0.5;exitY=0;exitDx=0;exitDy=0;" edge="1" parent="1" source="506H9jsnksi4IiLtCp6k-33" target="506H9jsnksi4IiLtCp6k-30">
          <mxGeometry width="50" height="50" relative="1" as="geometry">
            <mxPoint x="480" y="354" as="sourcePoint" />
            <mxPoint x="565" y="304" as="targetPoint" />
          </mxGeometry>
        </mxCell>
        <mxCell id="506H9jsnksi4IiLtCp6k-166" value="" style="endArrow=none;html=1;rounded=0;entryX=0.5;entryY=1;entryDx=0;entryDy=0;exitX=0.5;exitY=0;exitDx=0;exitDy=0;strokeColor=light-dark(#bfbfbf, #ededed);" edge="1" parent="1" source="506H9jsnksi4IiLtCp6k-32" target="506H9jsnksi4IiLtCp6k-30">
          <mxGeometry width="50" height="50" relative="1" as="geometry">
            <mxPoint x="430" y="354" as="sourcePoint" />
            <mxPoint x="480" y="324" as="targetPoint" />
          </mxGeometry>
        </mxCell>
        <mxCell id="506H9jsnksi4IiLtCp6k-167" value="" style="endArrow=none;html=1;rounded=0;exitX=0.5;exitY=0;exitDx=0;exitDy=0;strokeColor=light-dark(#bfbfbf, #ededed);entryX=0.5;entryY=1;entryDx=0;entryDy=0;" edge="1" parent="1">
          <mxGeometry width="50" height="50" relative="1" as="geometry">
            <mxPoint x="610" y="394" as="sourcePoint" />
            <mxPoint x="560" y="364" as="targetPoint" />
          </mxGeometry>
        </mxCell>
        <mxCell id="506H9jsnksi4IiLtCp6k-168" value="" style="endArrow=none;html=1;rounded=0;strokeColor=light-dark(#bfbfbf, #ededed);entryX=0.5;entryY=1;entryDx=0;entryDy=0;" edge="1" parent="1">
          <mxGeometry width="50" height="50" relative="1" as="geometry">
            <mxPoint x="560" y="394" as="sourcePoint" />
            <mxPoint x="560" y="364" as="targetPoint" />
          </mxGeometry>
        </mxCell>
        <mxCell id="506H9jsnksi4IiLtCp6k-169" value="" style="endArrow=none;html=1;rounded=0;exitX=0.5;exitY=0;exitDx=0;exitDy=0;entryX=0.5;entryY=1;entryDx=0;entryDy=0;strokeColor=light-dark(#bfbfbf, #ededed);" edge="1" parent="1">
          <mxGeometry width="50" height="50" relative="1" as="geometry">
            <mxPoint x="510" y="394" as="sourcePoint" />
            <mxPoint x="560" y="364" as="targetPoint" />
          </mxGeometry>
        </mxCell>
        <mxCell id="506H9jsnksi4IiLtCp6k-170" value="" style="endArrow=none;html=1;rounded=0;strokeColor=light-dark(#bfbfbf, #ededed);entryX=0.5;entryY=1;entryDx=0;entryDy=0;exitX=0.5;exitY=0;exitDx=0;exitDy=0;" edge="1" parent="1">
          <mxGeometry width="50" height="50" relative="1" as="geometry">
            <mxPoint x="460" y="394" as="sourcePoint" />
            <mxPoint x="560" y="364" as="targetPoint" />
          </mxGeometry>
        </mxCell>
        <mxCell id="506H9jsnksi4IiLtCp6k-171" value="" style="endArrow=none;html=1;rounded=0;entryX=0.5;entryY=1;entryDx=0;entryDy=0;exitX=0.5;exitY=0;exitDx=0;exitDy=0;strokeColor=light-dark(#bfbfbf, #ededed);" edge="1" parent="1">
          <mxGeometry width="50" height="50" relative="1" as="geometry">
            <mxPoint x="410" y="394" as="sourcePoint" />
            <mxPoint x="560" y="364" as="targetPoint" />
          </mxGeometry>
        </mxCell>
        <mxCell id="506H9jsnksi4IiLtCp6k-116" value="" style="endArrow=none;html=1;rounded=0;exitX=0.5;exitY=0;exitDx=0;exitDy=0;entryX=0.5;entryY=1;entryDx=0;entryDy=0;fontStyle=4" edge="1" parent="1">
          <mxGeometry width="50" height="50" relative="1" as="geometry">
            <mxPoint x="410" y="394" as="sourcePoint" />
            <mxPoint x="510" y="364" as="targetPoint" />
          </mxGeometry>
        </mxCell>
        <mxCell id="506H9jsnksi4IiLtCp6k-117" value="" style="endArrow=none;html=1;rounded=0;exitX=0.5;exitY=0;exitDx=0;exitDy=0;entryX=0.5;entryY=1;entryDx=0;entryDy=0;fontStyle=4" edge="1" parent="1">
          <mxGeometry width="50" height="50" relative="1" as="geometry">
            <mxPoint x="460" y="394" as="sourcePoint" />
            <mxPoint x="510" y="364" as="targetPoint" />
          </mxGeometry>
        </mxCell>
        <mxCell id="506H9jsnksi4IiLtCp6k-118" value="" style="endArrow=none;html=1;rounded=0;exitX=0.5;exitY=0;exitDx=0;exitDy=0;entryX=0.5;entryY=1;entryDx=0;entryDy=0;fontStyle=4" edge="1" parent="1">
          <mxGeometry width="50" height="50" relative="1" as="geometry">
            <mxPoint x="510" y="394" as="sourcePoint" />
            <mxPoint x="510" y="364" as="targetPoint" />
          </mxGeometry>
        </mxCell>
        <mxCell id="506H9jsnksi4IiLtCp6k-119" value="" style="endArrow=none;html=1;rounded=0;exitX=0.5;exitY=0;exitDx=0;exitDy=0;entryX=0.5;entryY=1;entryDx=0;entryDy=0;fontStyle=4" edge="1" parent="1">
          <mxGeometry width="50" height="50" relative="1" as="geometry">
            <mxPoint x="560" y="394" as="sourcePoint" />
            <mxPoint x="510" y="364" as="targetPoint" />
          </mxGeometry>
        </mxCell>
        <mxCell id="506H9jsnksi4IiLtCp6k-120" value="" style="endArrow=none;html=1;rounded=0;exitX=0.5;exitY=0;exitDx=0;exitDy=0;entryX=0.5;entryY=1;entryDx=0;entryDy=0;fontStyle=4" edge="1" parent="1">
          <mxGeometry width="50" height="50" relative="1" as="geometry">
            <mxPoint x="610" y="394" as="sourcePoint" />
            <mxPoint x="510" y="364" as="targetPoint" />
          </mxGeometry>
        </mxCell>
        <mxCell id="506H9jsnksi4IiLtCp6k-97" value="" style="endArrow=none;html=1;rounded=0;exitX=0.5;exitY=0;exitDx=0;exitDy=0;entryX=0.5;entryY=1;entryDx=0;entryDy=0;fontStyle=0" edge="1" parent="1" source="506H9jsnksi4IiLtCp6k-32" target="506H9jsnksi4IiLtCp6k-29">
          <mxGeometry width="50" height="50" relative="1" as="geometry">
            <mxPoint x="805" y="294" as="sourcePoint" />
            <mxPoint x="855" y="244" as="targetPoint" />
          </mxGeometry>
        </mxCell>
        <mxCell id="506H9jsnksi4IiLtCp6k-99" value="" style="endArrow=none;html=1;rounded=0;exitX=0.5;exitY=0;exitDx=0;exitDy=0;entryX=0.5;entryY=1;entryDx=0;entryDy=0;fontStyle=0" edge="1" parent="1" source="506H9jsnksi4IiLtCp6k-33" target="506H9jsnksi4IiLtCp6k-29">
          <mxGeometry width="50" height="50" relative="1" as="geometry">
            <mxPoint x="420" y="344" as="sourcePoint" />
            <mxPoint x="520" y="314" as="targetPoint" />
          </mxGeometry>
        </mxCell>
        <mxCell id="506H9jsnksi4IiLtCp6k-100" value="" style="endArrow=none;html=1;rounded=0;exitX=0.5;exitY=0;exitDx=0;exitDy=0;entryX=0.5;entryY=1;entryDx=0;entryDy=0;fontStyle=0" edge="1" parent="1" source="506H9jsnksi4IiLtCp6k-34" target="506H9jsnksi4IiLtCp6k-29">
          <mxGeometry width="50" height="50" relative="1" as="geometry">
            <mxPoint x="470" y="344" as="sourcePoint" />
            <mxPoint x="520" y="314" as="targetPoint" />
          </mxGeometry>
        </mxCell>
        <mxCell id="506H9jsnksi4IiLtCp6k-101" value="" style="endArrow=none;html=1;rounded=0;exitX=0.5;exitY=0;exitDx=0;exitDy=0;entryX=0.5;entryY=1;entryDx=0;entryDy=0;fontStyle=0" edge="1" parent="1" source="506H9jsnksi4IiLtCp6k-35" target="506H9jsnksi4IiLtCp6k-29">
          <mxGeometry width="50" height="50" relative="1" as="geometry">
            <mxPoint x="520" y="344" as="sourcePoint" />
            <mxPoint x="515" y="304" as="targetPoint" />
          </mxGeometry>
        </mxCell>
        <mxCell id="506H9jsnksi4IiLtCp6k-102" value="" style="endArrow=none;html=1;rounded=0;exitX=0.5;exitY=0;exitDx=0;exitDy=0;entryX=0.5;entryY=1;entryDx=0;entryDy=0;fontStyle=0" edge="1" parent="1" source="506H9jsnksi4IiLtCp6k-36" target="506H9jsnksi4IiLtCp6k-29">
          <mxGeometry width="50" height="50" relative="1" as="geometry">
            <mxPoint x="570" y="344" as="sourcePoint" />
            <mxPoint x="515" y="304" as="targetPoint" />
          </mxGeometry>
        </mxCell>
        <mxCell id="506H9jsnksi4IiLtCp6k-172" value="" style="endArrow=none;html=1;rounded=0;entryX=0.5;entryY=1;entryDx=0;entryDy=0;strokeColor=light-dark(#bfbfbf, #ededed);" edge="1" parent="1" source="506H9jsnksi4IiLtCp6k-47" target="506H9jsnksi4IiLtCp6k-42">
          <mxGeometry width="50" height="50" relative="1" as="geometry">
            <mxPoint x="39.579999999999984" y="344" as="sourcePoint" />
            <mxPoint x="39.579999999999984" y="314" as="targetPoint" />
          </mxGeometry>
        </mxCell>
        <mxCell id="506H9jsnksi4IiLtCp6k-173" value="" style="endArrow=none;html=1;rounded=0;entryX=0.5;entryY=1;entryDx=0;entryDy=0;exitX=0.5;exitY=0;exitDx=0;exitDy=0;strokeColor=light-dark(#bfbfbf, #ededed);" edge="1" parent="1">
          <mxGeometry width="50" height="50" relative="1" as="geometry">
            <mxPoint x="189.79999999999995" y="334" as="sourcePoint" />
            <mxPoint x="189.79999999999995" y="304" as="targetPoint" />
          </mxGeometry>
        </mxCell>
        <mxCell id="506H9jsnksi4IiLtCp6k-174" value="" style="endArrow=none;html=1;rounded=0;entryX=0.5;entryY=1;entryDx=0;entryDy=0;exitX=0.5;exitY=0;exitDx=0;exitDy=0;strokeColor=light-dark(#bfbfbf, #ededed);" edge="1" parent="1">
          <mxGeometry width="50" height="50" relative="1" as="geometry">
            <mxPoint x="239.79999999999995" y="334" as="sourcePoint" />
            <mxPoint x="239.79999999999995" y="304" as="targetPoint" />
          </mxGeometry>
        </mxCell>
        <mxCell id="506H9jsnksi4IiLtCp6k-175" value="" style="endArrow=none;html=1;rounded=0;entryX=0.5;entryY=1;entryDx=0;entryDy=0;exitX=0.5;exitY=0;exitDx=0;exitDy=0;strokeColor=light-dark(#bfbfbf, #ededed);" edge="1" parent="1">
          <mxGeometry width="50" height="50" relative="1" as="geometry">
            <mxPoint x="289.79999999999995" y="334" as="sourcePoint" />
            <mxPoint x="289.79999999999995" y="304" as="targetPoint" />
          </mxGeometry>
        </mxCell>
        <mxCell id="506H9jsnksi4IiLtCp6k-176" value="" style="endArrow=none;html=1;rounded=0;entryX=0.5;entryY=1;entryDx=0;entryDy=0;exitX=0.5;exitY=0;exitDx=0;exitDy=0;strokeColor=light-dark(#bfbfbf, #ededed);" edge="1" parent="1">
          <mxGeometry width="50" height="50" relative="1" as="geometry">
            <mxPoint x="139.79999999999995" y="394" as="sourcePoint" />
            <mxPoint x="139.79999999999995" y="364" as="targetPoint" />
          </mxGeometry>
        </mxCell>
        <mxCell id="506H9jsnksi4IiLtCp6k-177" value="" style="endArrow=none;html=1;rounded=0;entryX=0.5;entryY=1;entryDx=0;entryDy=0;exitX=0.5;exitY=0;exitDx=0;exitDy=0;strokeColor=light-dark(#bfbfbf, #ededed);" edge="1" parent="1">
          <mxGeometry width="50" height="50" relative="1" as="geometry">
            <mxPoint x="189.79999999999995" y="394" as="sourcePoint" />
            <mxPoint x="189.79999999999995" y="364" as="targetPoint" />
          </mxGeometry>
        </mxCell>
        <mxCell id="506H9jsnksi4IiLtCp6k-178" value="" style="endArrow=none;html=1;rounded=0;entryX=0.5;entryY=1;entryDx=0;entryDy=0;exitX=0.5;exitY=0;exitDx=0;exitDy=0;strokeColor=light-dark(#bfbfbf, #ededed);" edge="1" parent="1">
          <mxGeometry width="50" height="50" relative="1" as="geometry">
            <mxPoint x="239.79999999999995" y="394" as="sourcePoint" />
            <mxPoint x="239.79999999999995" y="364" as="targetPoint" />
          </mxGeometry>
        </mxCell>
        <mxCell id="506H9jsnksi4IiLtCp6k-179" value="" style="endArrow=none;html=1;rounded=0;entryX=0.5;entryY=1;entryDx=0;entryDy=0;exitX=0.5;exitY=0;exitDx=0;exitDy=0;strokeColor=light-dark(#bfbfbf, #ededed);" edge="1" parent="1">
          <mxGeometry width="50" height="50" relative="1" as="geometry">
            <mxPoint x="289.79999999999995" y="394" as="sourcePoint" />
            <mxPoint x="289.79999999999995" y="364" as="targetPoint" />
          </mxGeometry>
        </mxCell>
        <mxCell id="506H9jsnksi4IiLtCp6k-180" value="" style="endArrow=none;html=1;rounded=0;entryX=0.5;entryY=1;entryDx=0;entryDy=0;strokeColor=light-dark(#bfbfbf, #ededed);exitX=0.5;exitY=0;exitDx=0;exitDy=0;" edge="1" parent="1" source="506H9jsnksi4IiLtCp6k-47" target="506H9jsnksi4IiLtCp6k-43">
          <mxGeometry width="50" height="50" relative="1" as="geometry">
            <mxPoint x="150" y="344" as="sourcePoint" />
            <mxPoint x="150" y="314" as="targetPoint" />
          </mxGeometry>
        </mxCell>
        <mxCell id="506H9jsnksi4IiLtCp6k-181" value="" style="endArrow=none;html=1;rounded=0;strokeColor=light-dark(#bfbfbf, #ededed);exitX=0.5;exitY=0;exitDx=0;exitDy=0;entryX=0.485;entryY=1.027;entryDx=0;entryDy=0;entryPerimeter=0;" edge="1" parent="1" source="506H9jsnksi4IiLtCp6k-52" target="506H9jsnksi4IiLtCp6k-48">
          <mxGeometry width="50" height="50" relative="1" as="geometry">
            <mxPoint x="135" y="404" as="sourcePoint" />
            <mxPoint x="195" y="364" as="targetPoint" />
          </mxGeometry>
        </mxCell>
        <mxCell id="506H9jsnksi4IiLtCp6k-182" value="" style="endArrow=none;html=1;rounded=0;entryX=0.5;entryY=1;entryDx=0;entryDy=0;strokeColor=light-dark(#bfbfbf, #ededed);exitX=0.5;exitY=0;exitDx=0;exitDy=0;" edge="1" parent="1" source="506H9jsnksi4IiLtCp6k-47" target="506H9jsnksi4IiLtCp6k-44">
          <mxGeometry width="50" height="50" relative="1" as="geometry">
            <mxPoint x="150" y="344" as="sourcePoint" />
            <mxPoint x="200" y="314" as="targetPoint" />
          </mxGeometry>
        </mxCell>
        <mxCell id="506H9jsnksi4IiLtCp6k-183" value="" style="endArrow=none;html=1;rounded=0;entryX=0.5;entryY=1;entryDx=0;entryDy=0;strokeColor=light-dark(#bfbfbf, #ededed);exitX=0.5;exitY=0;exitDx=0;exitDy=0;" edge="1" parent="1" source="506H9jsnksi4IiLtCp6k-52" target="506H9jsnksi4IiLtCp6k-49">
          <mxGeometry width="50" height="50" relative="1" as="geometry">
            <mxPoint x="160" y="354" as="sourcePoint" />
            <mxPoint x="210" y="324" as="targetPoint" />
          </mxGeometry>
        </mxCell>
        <mxCell id="506H9jsnksi4IiLtCp6k-184" value="" style="endArrow=none;html=1;rounded=0;entryX=0.5;entryY=1;entryDx=0;entryDy=0;strokeColor=light-dark(#bfbfbf, #ededed);exitX=0.5;exitY=0;exitDx=0;exitDy=0;" edge="1" parent="1" source="506H9jsnksi4IiLtCp6k-48" target="506H9jsnksi4IiLtCp6k-44">
          <mxGeometry width="50" height="50" relative="1" as="geometry">
            <mxPoint x="170" y="364" as="sourcePoint" />
            <mxPoint x="220" y="334" as="targetPoint" />
          </mxGeometry>
        </mxCell>
        <mxCell id="506H9jsnksi4IiLtCp6k-185" value="" style="endArrow=none;html=1;rounded=0;entryX=0.5;entryY=1;entryDx=0;entryDy=0;strokeColor=light-dark(#bfbfbf, #ededed);exitX=0.5;exitY=0;exitDx=0;exitDy=0;" edge="1" parent="1" source="506H9jsnksi4IiLtCp6k-53" target="506H9jsnksi4IiLtCp6k-49">
          <mxGeometry width="50" height="50" relative="1" as="geometry">
            <mxPoint x="180" y="374" as="sourcePoint" />
            <mxPoint x="230" y="344" as="targetPoint" />
          </mxGeometry>
        </mxCell>
        <mxCell id="506H9jsnksi4IiLtCp6k-186" value="" style="endArrow=none;html=1;rounded=0;entryX=0.5;entryY=1;entryDx=0;entryDy=0;strokeColor=light-dark(#bfbfbf, #ededed);exitX=0.5;exitY=0;exitDx=0;exitDy=0;" edge="1" parent="1" source="506H9jsnksi4IiLtCp6k-47" target="506H9jsnksi4IiLtCp6k-45">
          <mxGeometry width="50" height="50" relative="1" as="geometry">
            <mxPoint x="190" y="384" as="sourcePoint" />
            <mxPoint x="240" y="354" as="targetPoint" />
          </mxGeometry>
        </mxCell>
        <mxCell id="506H9jsnksi4IiLtCp6k-187" value="" style="endArrow=none;html=1;rounded=0;entryX=0.5;entryY=1;entryDx=0;entryDy=0;strokeColor=light-dark(#bfbfbf, #ededed);exitX=0.5;exitY=0;exitDx=0;exitDy=0;" edge="1" parent="1" source="506H9jsnksi4IiLtCp6k-48" target="506H9jsnksi4IiLtCp6k-45">
          <mxGeometry width="50" height="50" relative="1" as="geometry">
            <mxPoint x="200" y="394" as="sourcePoint" />
            <mxPoint x="250" y="364" as="targetPoint" />
          </mxGeometry>
        </mxCell>
        <mxCell id="506H9jsnksi4IiLtCp6k-188" value="" style="endArrow=none;html=1;rounded=0;entryX=0.5;entryY=1;entryDx=0;entryDy=0;strokeColor=light-dark(#bfbfbf, #ededed);exitX=0.5;exitY=0;exitDx=0;exitDy=0;" edge="1" parent="1" source="506H9jsnksi4IiLtCp6k-49" target="506H9jsnksi4IiLtCp6k-45">
          <mxGeometry width="50" height="50" relative="1" as="geometry">
            <mxPoint x="210" y="404" as="sourcePoint" />
            <mxPoint x="260" y="374" as="targetPoint" />
          </mxGeometry>
        </mxCell>
        <mxCell id="506H9jsnksi4IiLtCp6k-194" value="" style="endArrow=none;html=1;rounded=0;entryX=0.5;entryY=1;entryDx=0;entryDy=0;strokeColor=light-dark(#bfbfbf, #ededed);exitX=0.5;exitY=0;exitDx=0;exitDy=0;" edge="1" parent="1" source="506H9jsnksi4IiLtCp6k-54" target="506H9jsnksi4IiLtCp6k-50">
          <mxGeometry width="50" height="50" relative="1" as="geometry">
            <mxPoint x="250" y="344" as="sourcePoint" />
            <mxPoint x="300" y="314" as="targetPoint" />
          </mxGeometry>
        </mxCell>
        <mxCell id="506H9jsnksi4IiLtCp6k-195" value="" style="endArrow=none;html=1;rounded=0;entryX=0.5;entryY=1;entryDx=0;entryDy=0;strokeColor=light-dark(#bfbfbf, #ededed);exitX=0.5;exitY=0;exitDx=0;exitDy=0;" edge="1" parent="1" source="506H9jsnksi4IiLtCp6k-53" target="506H9jsnksi4IiLtCp6k-50">
          <mxGeometry width="50" height="50" relative="1" as="geometry">
            <mxPoint x="260" y="354" as="sourcePoint" />
            <mxPoint x="310" y="324" as="targetPoint" />
          </mxGeometry>
        </mxCell>
        <mxCell id="506H9jsnksi4IiLtCp6k-196" value="" style="endArrow=none;html=1;rounded=0;entryX=0.5;entryY=1;entryDx=0;entryDy=0;strokeColor=light-dark(#bfbfbf, #ededed);exitX=0.5;exitY=0;exitDx=0;exitDy=0;" edge="1" parent="1" source="506H9jsnksi4IiLtCp6k-52" target="506H9jsnksi4IiLtCp6k-50">
          <mxGeometry width="50" height="50" relative="1" as="geometry">
            <mxPoint x="270" y="364" as="sourcePoint" />
            <mxPoint x="320" y="334" as="targetPoint" />
          </mxGeometry>
        </mxCell>
        <mxCell id="506H9jsnksi4IiLtCp6k-126" value="" style="endArrow=none;html=1;rounded=0;entryX=0.5;entryY=1;entryDx=0;entryDy=0;exitX=0.5;exitY=0;exitDx=0;exitDy=0;" edge="1" parent="1">
          <mxGeometry width="50" height="50" relative="1" as="geometry">
            <mxPoint x="339.76" y="394" as="sourcePoint" />
            <mxPoint x="339.76" y="364" as="targetPoint" />
          </mxGeometry>
        </mxCell>
        <mxCell id="506H9jsnksi4IiLtCp6k-127" value="" style="endArrow=none;html=1;rounded=0;entryX=0.5;entryY=1;entryDx=0;entryDy=0;exitX=0.5;exitY=0;exitDx=0;exitDy=0;" edge="1" parent="1">
          <mxGeometry width="50" height="50" relative="1" as="geometry">
            <mxPoint x="289.76" y="394" as="sourcePoint" />
            <mxPoint x="339.76" y="364" as="targetPoint" />
          </mxGeometry>
        </mxCell>
        <mxCell id="506H9jsnksi4IiLtCp6k-128" value="" style="endArrow=none;html=1;rounded=0;exitX=0.5;exitY=0;exitDx=0;exitDy=0;entryX=0.5;entryY=1;entryDx=0;entryDy=0;" edge="1" parent="1">
          <mxGeometry width="50" height="50" relative="1" as="geometry">
            <mxPoint x="239.76" y="394" as="sourcePoint" />
            <mxPoint x="339.76" y="364" as="targetPoint" />
          </mxGeometry>
        </mxCell>
        <mxCell id="506H9jsnksi4IiLtCp6k-129" value="" style="endArrow=none;html=1;rounded=0;exitX=0.5;exitY=0;exitDx=0;exitDy=0;entryX=0.5;entryY=1;entryDx=0;entryDy=0;" edge="1" parent="1">
          <mxGeometry width="50" height="50" relative="1" as="geometry">
            <mxPoint x="189.76" y="394" as="sourcePoint" />
            <mxPoint x="339.76" y="364" as="targetPoint" />
          </mxGeometry>
        </mxCell>
        <mxCell id="506H9jsnksi4IiLtCp6k-130" value="" style="endArrow=none;html=1;rounded=0;entryX=0.5;entryY=1;entryDx=0;entryDy=0;exitX=0.5;exitY=0;exitDx=0;exitDy=0;" edge="1" parent="1">
          <mxGeometry width="50" height="50" relative="1" as="geometry">
            <mxPoint x="139.76" y="394" as="sourcePoint" />
            <mxPoint x="339.76" y="364" as="targetPoint" />
          </mxGeometry>
        </mxCell>
        <mxCell id="506H9jsnksi4IiLtCp6k-121" value="" style="endArrow=none;html=1;rounded=0;entryX=0.5;entryY=1;entryDx=0;entryDy=0;exitX=0.5;exitY=0;exitDx=0;exitDy=0;" edge="1" parent="1" source="506H9jsnksi4IiLtCp6k-51" target="506H9jsnksi4IiLtCp6k-46">
          <mxGeometry width="50" height="50" relative="1" as="geometry">
            <mxPoint x="225" y="274" as="sourcePoint" />
            <mxPoint x="275" y="224" as="targetPoint" />
          </mxGeometry>
        </mxCell>
        <mxCell id="506H9jsnksi4IiLtCp6k-122" value="" style="endArrow=none;html=1;rounded=0;entryX=0.5;entryY=1;entryDx=0;entryDy=0;exitX=0.5;exitY=0;exitDx=0;exitDy=0;" edge="1" parent="1" source="506H9jsnksi4IiLtCp6k-50" target="506H9jsnksi4IiLtCp6k-46">
          <mxGeometry width="50" height="50" relative="1" as="geometry">
            <mxPoint x="350" y="344" as="sourcePoint" />
            <mxPoint x="350" y="314" as="targetPoint" />
          </mxGeometry>
        </mxCell>
        <mxCell id="506H9jsnksi4IiLtCp6k-123" value="" style="endArrow=none;html=1;rounded=0;exitX=0.5;exitY=0;exitDx=0;exitDy=0;entryX=0.5;entryY=1;entryDx=0;entryDy=0;" edge="1" parent="1" source="506H9jsnksi4IiLtCp6k-49" target="506H9jsnksi4IiLtCp6k-46">
          <mxGeometry width="50" height="50" relative="1" as="geometry">
            <mxPoint x="360" y="354" as="sourcePoint" />
            <mxPoint x="345" y="304" as="targetPoint" />
          </mxGeometry>
        </mxCell>
        <mxCell id="506H9jsnksi4IiLtCp6k-124" value="" style="endArrow=none;html=1;rounded=0;exitX=0.5;exitY=0;exitDx=0;exitDy=0;entryX=0.5;entryY=1;entryDx=0;entryDy=0;" edge="1" parent="1" source="506H9jsnksi4IiLtCp6k-48" target="506H9jsnksi4IiLtCp6k-46">
          <mxGeometry width="50" height="50" relative="1" as="geometry">
            <mxPoint x="370" y="364" as="sourcePoint" />
            <mxPoint x="335" y="304" as="targetPoint" />
          </mxGeometry>
        </mxCell>
        <mxCell id="506H9jsnksi4IiLtCp6k-125" value="" style="endArrow=none;html=1;rounded=0;entryX=0.5;entryY=1;entryDx=0;entryDy=0;exitX=0.5;exitY=0;exitDx=0;exitDy=0;" edge="1" parent="1" source="506H9jsnksi4IiLtCp6k-47" target="506H9jsnksi4IiLtCp6k-46">
          <mxGeometry width="50" height="50" relative="1" as="geometry">
            <mxPoint x="380" y="374" as="sourcePoint" />
            <mxPoint x="380" y="344" as="targetPoint" />
          </mxGeometry>
        </mxCell>
        <mxCell id="506H9jsnksi4IiLtCp6k-197" value="" style="endArrow=none;html=1;rounded=0;exitX=0.5;exitY=0;exitDx=0;exitDy=0;entryX=0.5;entryY=1;entryDx=0;entryDy=0;fontStyle=4" edge="1" parent="1">
          <mxGeometry width="50" height="50" relative="1" as="geometry">
            <mxPoint x="680" y="394" as="sourcePoint" />
            <mxPoint x="780" y="364" as="targetPoint" />
          </mxGeometry>
        </mxCell>
        <mxCell id="506H9jsnksi4IiLtCp6k-198" value="" style="endArrow=none;html=1;rounded=0;exitX=0.5;exitY=0;exitDx=0;exitDy=0;entryX=0.5;entryY=1;entryDx=0;entryDy=0;fontStyle=4" edge="1" parent="1">
          <mxGeometry width="50" height="50" relative="1" as="geometry">
            <mxPoint x="730" y="394" as="sourcePoint" />
            <mxPoint x="780" y="364" as="targetPoint" />
          </mxGeometry>
        </mxCell>
        <mxCell id="506H9jsnksi4IiLtCp6k-199" value="" style="endArrow=none;html=1;rounded=0;exitX=0.5;exitY=0;exitDx=0;exitDy=0;entryX=0.5;entryY=1;entryDx=0;entryDy=0;fontStyle=4" edge="1" parent="1">
          <mxGeometry width="50" height="50" relative="1" as="geometry">
            <mxPoint x="780" y="394" as="sourcePoint" />
            <mxPoint x="780" y="364" as="targetPoint" />
          </mxGeometry>
        </mxCell>
        <mxCell id="506H9jsnksi4IiLtCp6k-200" value="" style="endArrow=none;html=1;rounded=0;exitX=0.5;exitY=0;exitDx=0;exitDy=0;entryX=0.5;entryY=1;entryDx=0;entryDy=0;fontStyle=4" edge="1" parent="1">
          <mxGeometry width="50" height="50" relative="1" as="geometry">
            <mxPoint x="830" y="394" as="sourcePoint" />
            <mxPoint x="780" y="364" as="targetPoint" />
          </mxGeometry>
        </mxCell>
        <mxCell id="506H9jsnksi4IiLtCp6k-201" value="" style="endArrow=none;html=1;rounded=0;exitX=0.5;exitY=0;exitDx=0;exitDy=0;entryX=0.5;entryY=1;entryDx=0;entryDy=0;fontStyle=4" edge="1" parent="1">
          <mxGeometry width="50" height="50" relative="1" as="geometry">
            <mxPoint x="880" y="394" as="sourcePoint" />
            <mxPoint x="780" y="364" as="targetPoint" />
          </mxGeometry>
        </mxCell>
        <mxCell id="506H9jsnksi4IiLtCp6k-212" value="" style="endArrow=none;html=1;rounded=0;exitX=0.5;exitY=0;exitDx=0;exitDy=0;entryX=0.5;entryY=1;entryDx=0;entryDy=0;" edge="1" parent="1">
          <mxGeometry width="50" height="50" relative="1" as="geometry">
            <mxPoint x="880" y="394" as="sourcePoint" />
            <mxPoint x="730" y="364" as="targetPoint" />
          </mxGeometry>
        </mxCell>
        <mxCell id="506H9jsnksi4IiLtCp6k-213" value="" style="endArrow=none;html=1;rounded=0;exitX=0.5;exitY=0;exitDx=0;exitDy=0;entryX=0.5;entryY=1;entryDx=0;entryDy=0;" edge="1" parent="1">
          <mxGeometry width="50" height="50" relative="1" as="geometry">
            <mxPoint x="830" y="394" as="sourcePoint" />
            <mxPoint x="730" y="364" as="targetPoint" />
          </mxGeometry>
        </mxCell>
        <mxCell id="506H9jsnksi4IiLtCp6k-214" value="" style="endArrow=none;html=1;rounded=0;exitX=0.5;exitY=0;exitDx=0;exitDy=0;entryX=0.5;entryY=1;entryDx=0;entryDy=0;" edge="1" parent="1">
          <mxGeometry width="50" height="50" relative="1" as="geometry">
            <mxPoint x="780" y="394" as="sourcePoint" />
            <mxPoint x="730" y="364" as="targetPoint" />
          </mxGeometry>
        </mxCell>
        <mxCell id="506H9jsnksi4IiLtCp6k-215" value="" style="endArrow=none;html=1;rounded=0;entryX=0.5;entryY=1;entryDx=0;entryDy=0;" edge="1" parent="1">
          <mxGeometry width="50" height="50" relative="1" as="geometry">
            <mxPoint x="730" y="394" as="sourcePoint" />
            <mxPoint x="730" y="364" as="targetPoint" />
          </mxGeometry>
        </mxCell>
        <mxCell id="506H9jsnksi4IiLtCp6k-216" value="" style="endArrow=none;html=1;rounded=0;entryX=0.5;entryY=1;entryDx=0;entryDy=0;exitX=0.5;exitY=0;exitDx=0;exitDy=0;" edge="1" parent="1">
          <mxGeometry width="50" height="50" relative="1" as="geometry">
            <mxPoint x="680" y="394" as="sourcePoint" />
            <mxPoint x="730" y="364" as="targetPoint" />
          </mxGeometry>
        </mxCell>
        <mxCell id="506H9jsnksi4IiLtCp6k-217" value="" style="endArrow=none;html=1;rounded=0;exitX=0.5;exitY=0;exitDx=0;exitDy=0;entryX=0.5;entryY=1;entryDx=0;entryDy=0;" edge="1" parent="1">
          <mxGeometry width="50" height="50" relative="1" as="geometry">
            <mxPoint x="880" y="394" as="sourcePoint" />
            <mxPoint x="830" y="364" as="targetPoint" />
          </mxGeometry>
        </mxCell>
        <mxCell id="506H9jsnksi4IiLtCp6k-218" value="" style="endArrow=none;html=1;rounded=0;entryX=0.5;entryY=1;entryDx=0;entryDy=0;" edge="1" parent="1">
          <mxGeometry width="50" height="50" relative="1" as="geometry">
            <mxPoint x="830" y="394" as="sourcePoint" />
            <mxPoint x="830" y="364" as="targetPoint" />
          </mxGeometry>
        </mxCell>
        <mxCell id="506H9jsnksi4IiLtCp6k-219" value="" style="endArrow=none;html=1;rounded=0;exitX=0.5;exitY=0;exitDx=0;exitDy=0;entryX=0.5;entryY=1;entryDx=0;entryDy=0;" edge="1" parent="1">
          <mxGeometry width="50" height="50" relative="1" as="geometry">
            <mxPoint x="780" y="394" as="sourcePoint" />
            <mxPoint x="830" y="364" as="targetPoint" />
          </mxGeometry>
        </mxCell>
        <mxCell id="506H9jsnksi4IiLtCp6k-220" value="" style="endArrow=none;html=1;rounded=0;entryX=0.5;entryY=1;entryDx=0;entryDy=0;exitX=0.5;exitY=0;exitDx=0;exitDy=0;" edge="1" parent="1">
          <mxGeometry width="50" height="50" relative="1" as="geometry">
            <mxPoint x="730" y="394" as="sourcePoint" />
            <mxPoint x="830" y="364" as="targetPoint" />
          </mxGeometry>
        </mxCell>
        <mxCell id="506H9jsnksi4IiLtCp6k-221" value="" style="endArrow=none;html=1;rounded=0;entryX=0.5;entryY=1;entryDx=0;entryDy=0;exitX=0.5;exitY=0;exitDx=0;exitDy=0;" edge="1" parent="1">
          <mxGeometry width="50" height="50" relative="1" as="geometry">
            <mxPoint x="680" y="394" as="sourcePoint" />
            <mxPoint x="830" y="364" as="targetPoint" />
          </mxGeometry>
        </mxCell>
        <mxCell id="506H9jsnksi4IiLtCp6k-222" value="" style="endArrow=none;html=1;rounded=0;entryX=0.5;entryY=1;entryDx=0;entryDy=0;exitX=0.5;exitY=0;exitDx=0;exitDy=0;" edge="1" parent="1" source="506H9jsnksi4IiLtCp6k-63" target="506H9jsnksi4IiLtCp6k-58">
          <mxGeometry width="50" height="50" relative="1" as="geometry">
            <mxPoint x="637" y="313" as="sourcePoint" />
            <mxPoint x="687" y="263" as="targetPoint" />
          </mxGeometry>
        </mxCell>
        <mxCell id="506H9jsnksi4IiLtCp6k-223" value="" style="endArrow=none;html=1;rounded=0;entryX=0.5;entryY=1;entryDx=0;entryDy=0;exitX=0.5;exitY=0;exitDx=0;exitDy=0;" edge="1" parent="1" source="506H9jsnksi4IiLtCp6k-64" target="506H9jsnksi4IiLtCp6k-59">
          <mxGeometry width="50" height="50" relative="1" as="geometry">
            <mxPoint x="637" y="313" as="sourcePoint" />
            <mxPoint x="687" y="263" as="targetPoint" />
          </mxGeometry>
        </mxCell>
        <mxCell id="506H9jsnksi4IiLtCp6k-224" value="" style="endArrow=none;html=1;rounded=0;entryX=0.5;entryY=1;entryDx=0;entryDy=0;exitX=0.5;exitY=0;exitDx=0;exitDy=0;" edge="1" parent="1">
          <mxGeometry width="50" height="50" relative="1" as="geometry">
            <mxPoint x="829.8" y="334" as="sourcePoint" />
            <mxPoint x="829.8" y="304" as="targetPoint" />
          </mxGeometry>
        </mxCell>
        <mxCell id="506H9jsnksi4IiLtCp6k-225" value="" style="endArrow=none;html=1;rounded=0;entryX=0.5;entryY=1;entryDx=0;entryDy=0;exitX=0.5;exitY=0;exitDx=0;exitDy=0;" edge="1" parent="1" source="506H9jsnksi4IiLtCp6k-63" target="506H9jsnksi4IiLtCp6k-59">
          <mxGeometry width="50" height="50" relative="1" as="geometry">
            <mxPoint x="684" y="331" as="sourcePoint" />
            <mxPoint x="780" y="307" as="targetPoint" />
          </mxGeometry>
        </mxCell>
        <mxCell id="506H9jsnksi4IiLtCp6k-226" value="" style="endArrow=none;html=1;rounded=0;entryX=0.5;entryY=1;entryDx=0;entryDy=0;exitX=0.5;exitY=0;exitDx=0;exitDy=0;" edge="1" parent="1" source="506H9jsnksi4IiLtCp6k-64" target="506H9jsnksi4IiLtCp6k-60">
          <mxGeometry width="50" height="50" relative="1" as="geometry">
            <mxPoint x="800" y="354" as="sourcePoint" />
            <mxPoint x="800" y="324" as="targetPoint" />
          </mxGeometry>
        </mxCell>
        <mxCell id="506H9jsnksi4IiLtCp6k-227" value="" style="endArrow=none;html=1;rounded=0;exitX=0.5;exitY=0;exitDx=0;exitDy=0;" edge="1" parent="1" source="506H9jsnksi4IiLtCp6k-63">
          <mxGeometry width="50" height="50" relative="1" as="geometry">
            <mxPoint x="810" y="364" as="sourcePoint" />
            <mxPoint x="830" y="304" as="targetPoint" />
          </mxGeometry>
        </mxCell>
        <mxCell id="506H9jsnksi4IiLtCp6k-228" value="&lt;font face=&quot;黑体&quot; style=&quot;font-size: 14px;&quot;&gt;解码器&lt;/font&gt;" style="text;html=1;align=center;verticalAlign=middle;resizable=0;points=[];autosize=1;strokeColor=none;fillColor=none;" vertex="1" parent="1">
          <mxGeometry x="861" y="304" width="60" height="29" as="geometry" />
        </mxCell>
        <mxCell id="506H9jsnksi4IiLtCp6k-229" value="&lt;font face=&quot;黑体&quot; style=&quot;font-size: 14px;&quot;&gt;编码器&lt;/font&gt;" style="text;html=1;align=center;verticalAlign=middle;resizable=0;points=[];autosize=1;strokeColor=none;fillColor=none;" vertex="1" parent="1">
          <mxGeometry x="898" y="394" width="60" height="29" as="geometry" />
        </mxCell>
        <mxCell id="506H9jsnksi4IiLtCp6k-230" value="&lt;font face=&quot;黑体&quot;&gt;&lt;span style=&quot;font-size: 14px;&quot;&gt;掩码语言建模&lt;/span&gt;&lt;/font&gt;&lt;span style=&quot;color: rgba(0, 0, 0, 0); font-family: monospace; font-size: 0px; text-align: start;&quot;&gt;%3CmxGraphModel%3E%3Croot%3E%3CmxCell%20id%3D%220%22%2F%3E%3CmxCell%20id%3D%221%22%20parent%3D%220%22%2F%3E%3CmxCell%20id%3D%222%22%20value%3D%22%26lt%3Bfont%20face%3D%26quot%3B%E9%BB%91%E4%BD%93%26quot%3B%20style%3D%26quot%3Bfont-size%3A%2014px%3B%26quot%3B%26gt%3B%E8%A7%A3%E7%A0%81%E5%99%A8%26lt%3B%2Ffont%26gt%3B%22%20style%3D%22text%3Bhtml%3D1%3Balign%3Dcenter%3BverticalAlign%3Dmiddle%3Bresizable%3D0%3Bpoints%3D%5B%5D%3Bautosize%3D1%3BstrokeColor%3Dnone%3BfillColor%3Dnone%3B%22%20vertex%3D%221%22%20parent%3D%221%22%3E%3CmxGeometry%20x%3D%22896%22%20y%3D%22310%22%20width%3D%2260%22%20height%3D%2229%22%20as%3D%22geometry%22%2F%3E%3C%2FmxCell%3E%3C%2Froot%3E%3C%2FmxGraphModel%3E&lt;/span&gt;" style="text;html=1;align=center;verticalAlign=middle;resizable=0;points=[];autosize=1;strokeColor=none;fillColor=none;" vertex="1" parent="1">
          <mxGeometry x="459" y="215" width="102" height="29" as="geometry" />
        </mxCell>
        <mxCell id="506H9jsnksi4IiLtCp6k-231" value="&lt;font face=&quot;黑体&quot;&gt;&lt;span style=&quot;font-size: 14px;&quot;&gt;自回归语言建模&lt;/span&gt;&lt;/font&gt;" style="text;html=1;align=center;verticalAlign=middle;resizable=0;points=[];autosize=1;strokeColor=none;fillColor=none;" vertex="1" parent="1">
          <mxGeometry x="182" y="215" width="116" height="29" as="geometry" />
        </mxCell>
        <mxCell id="506H9jsnksi4IiLtCp6k-232" value="&lt;font face=&quot;黑体&quot;&gt;&lt;span style=&quot;font-size: 14px;&quot;&gt;文本到文本语言建模&lt;/span&gt;&lt;/font&gt;" style="text;html=1;align=center;verticalAlign=middle;resizable=0;points=[];autosize=1;strokeColor=none;fillColor=none;" vertex="1" parent="1">
          <mxGeometry x="717" y="215" width="144" height="29" as="geometry" />
        </mxCell>
      </root>
    </mxGraphModel>
  </diagram>
</mxfile>
